<svg xmlns="http://www.w3.org/2000/svg" version="1.1" xmlns:xlink="http://www.w3.org/1999/xlink" xmlns:svgjs="http://svgjs.dev/svgjs" width="1000" height="343" viewBox="0 0 1000 343"><g transform="matrix(1,0,0,1,-0.6060311257240301,-0.16609035978808606)"><svg viewBox="0 0 396 136" data-background-color="#ffffff" preserveAspectRatio="xMidYMid meet" height="343" width="1000" xmlns="http://www.w3.org/2000/svg" xmlns:xlink="http://www.w3.org/1999/xlink"><g id="tight-bounds" transform="matrix(1,0,0,1,0.2399883257867259,0.06586033834852856)"><svg viewBox="0 0 395.52 135.86828459188126" height="135.86828459188126" width="395.52"><g><svg viewBox="0 0 395.52 135.86828459188126" height="135.86828459188126" width="395.52"><g><svg viewBox="0 0 395.52 135.86828459188126" height="135.86828459188126" width="395.52"><g id="textblocktransform"><svg viewBox="0 0 395.52 135.86828459188126" height="135.86828459188126" width="395.52" id="textblock"><g><svg viewBox="0 0 395.52 135.86828459188126" height="135.86828459188126" width="395.52"><g transform="matrix(1,0,0,1,0,0)"><svg width="395.52" viewBox="1.5499999523162842 -38.849998474121094 114.53999328613281 39.349998474121094" height="135.86828459188126" data-palette-color="#000000"><path d="M17.5-5.55L20.7-2.45Q19.2-1.1 17.05-0.3 14.9 0.5 12.65 0.5L12.65 0.5Q10.35 0.5 8.33-0.38 6.3-1.25 4.8-2.73 3.3-4.2 2.43-6.2 1.55-8.2 1.55-10.45L1.55-10.45Q1.55-12.7 2.43-14.7 3.3-16.7 4.8-18.2 6.3-19.7 8.28-20.58 10.25-21.45 12.5-21.45L12.5-21.45Q16.05-21.45 18.68-19.33 21.3-17.2 22.45-13.75L22.45-13.75Q20.9-13.2 18.9-12.4 16.9-11.6 14.75-10.73 12.6-9.85 10.45-9 8.3-8.15 6.45-7.45L6.45-7.45Q7.3-5.75 8.93-4.73 10.55-3.7 12.55-3.7L12.55-3.7Q13.9-3.7 15.28-4.2 16.65-4.7 17.5-5.55L17.5-5.55ZM17.1-14.75L17.1-14.75Q16.5-16 15.2-16.63 13.9-17.25 12.55-17.25L12.55-17.25Q11.1-17.25 9.88-16.7 8.65-16.15 7.75-15.23 6.85-14.3 6.33-13.1 5.8-11.9 5.8-10.65L5.8-10.65Q5.8-10.4 5.83-10.3 5.85-10.2 5.85-10.15L5.85-10.15Q7.15-10.65 8.68-11.28 10.2-11.9 11.7-12.53 13.2-13.15 14.6-13.73 16-14.3 17.1-14.75ZM30.45-38.85L30.45 0 26.2 0 26.2-38.85 30.45-38.85ZM51-5.55L54.2-2.45Q52.7-1.1 50.55-0.3 48.4 0.5 46.15 0.5L46.15 0.5Q43.85 0.5 41.82-0.38 39.8-1.25 38.3-2.73 36.8-4.2 35.92-6.2 35.05-8.2 35.05-10.45L35.05-10.45Q35.05-12.7 35.92-14.7 36.8-16.7 38.3-18.2 39.8-19.7 41.77-20.58 43.75-21.45 46-21.45L46-21.45Q49.55-21.45 52.17-19.33 54.8-17.2 55.95-13.75L55.95-13.75Q54.4-13.2 52.4-12.4 50.4-11.6 48.25-10.73 46.1-9.85 43.95-9 41.8-8.15 39.95-7.45L39.95-7.45Q40.8-5.75 42.42-4.73 44.05-3.7 46.05-3.7L46.05-3.7Q47.4-3.7 48.77-4.2 50.15-4.7 51-5.55L51-5.55ZM50.6-14.75L50.6-14.75Q50-16 48.7-16.63 47.4-17.25 46.05-17.25L46.05-17.25Q44.6-17.25 43.37-16.7 42.15-16.15 41.25-15.23 40.35-14.3 39.82-13.1 39.3-11.9 39.3-10.65L39.3-10.65Q39.3-10.4 39.32-10.3 39.35-10.2 39.35-10.15L39.35-10.15Q40.65-10.65 42.17-11.28 43.7-11.9 45.2-12.53 46.7-13.15 48.1-13.73 49.5-14.3 50.6-14.75ZM73.64-5.15L73.64-5.15Q74.34-4.3 74.97-3.53 75.59-2.75 76.24-1.9L76.24-1.9Q74.84-0.8 73.09-0.15 71.34 0.5 69.29 0.5L69.29 0.5Q66.99 0.5 64.97-0.38 62.94-1.25 61.44-2.75 59.94-4.25 59.07-6.25 58.19-8.25 58.19-10.5L58.19-10.5Q58.19-12.75 59.07-14.75 59.94-16.75 61.44-18.23 62.94-19.7 64.97-20.58 66.99-21.45 69.29-21.45L69.29-21.45Q71.39-21.45 73.17-20.8 74.94-20.15 76.39-19.05L76.39-19.05 73.64-15.8Q72.79-16.5 71.69-16.88 70.59-17.25 69.29-17.25L69.29-17.25Q67.79-17.25 66.54-16.73 65.29-16.2 64.37-15.3 63.44-14.4 62.94-13.18 62.44-11.95 62.44-10.5L62.44-10.5Q62.44-9.05 62.94-7.83 63.44-6.6 64.37-5.68 65.29-4.75 66.54-4.23 67.79-3.7 69.29-3.7L69.29-3.7Q70.59-3.7 71.69-4.08 72.79-4.45 73.64-5.15ZM82.24-20.85L82.24-30.1 86.49-30.1 86.49-20.85 92.09-20.85 92.09-17.05 86.49-17.05 86.49 0 82.24 0 82.24-17.05 78.49-17.05 78.49-20.85 82.24-20.85ZM93.74-10.25L93.74-10.25Q93.74-12.55 94.61-14.58 95.49-16.6 96.99-18.13 98.49-19.65 100.46-20.55 102.44-21.45 104.69-21.45L104.69-21.45Q106.19-21.45 107.44-21.08 108.69-20.7 109.59-20.15 110.49-19.6 111.04-19 111.59-18.4 111.79-17.95L111.79-17.95 111.99-20.9 116.09-20.9 116.09 0 111.79 0 111.79-2.65Q111.54-2.25 110.99-1.7 110.44-1.15 109.56-0.68 108.69-0.2 107.49 0.15 106.29 0.5 104.74 0.5L104.74 0.5Q102.34 0.5 100.31-0.38 98.29-1.25 96.84-2.73 95.39-4.2 94.56-6.15 93.74-8.1 93.74-10.25ZM98.04-10.5L98.04-10.5Q98.04-9.05 98.56-7.8 99.09-6.55 99.99-5.65 100.89-4.75 102.14-4.23 103.39-3.7 104.89-3.7L104.89-3.7Q106.39-3.7 107.66-4.23 108.94-4.75 109.86-5.68 110.79-6.6 111.29-7.83 111.79-9.05 111.79-10.5L111.79-10.5Q111.79-11.95 111.29-13.18 110.79-14.4 109.86-15.3 108.94-16.2 107.66-16.73 106.39-17.25 104.89-17.25L104.89-17.25Q103.39-17.25 102.14-16.73 100.89-16.2 99.99-15.3 99.09-14.4 98.56-13.18 98.04-11.95 98.04-10.5Z" opacity="1" transform="matrix(1,0,0,1,0,0)" fill="#000000" class="undefined-text-0" data-fill-palette-color="primary" id="text-0"></path></svg></g></svg></g></svg></g></svg></g><g></g></svg></g><defs></defs></svg><rect width="395.52" height="135.86828459188126" fill="none" stroke="none" visibility="hidden"></rect></g></svg></g></svg>